<mxfile host="app.diagrams.net" modified="2020-11-27T05:33:38.740Z" agent="5.0 (Windows NT 6.1; Win64; x64) AppleWebKit/537.36 (KHTML, like Gecko) Chrome/86.0.4240.198 Safari/537.36" etag="cdCF_7ch8U7l8-vkNhdH" version="13.10.3" type="github">
  <diagram id="enwR26MDGIjgRyg9aq1u" name="Page-1">
    <mxGraphModel dx="868" dy="425" grid="1" gridSize="10" guides="1" tooltips="1" connect="1" arrows="1" fold="1" page="1" pageScale="1" pageWidth="1169" pageHeight="827" math="0" shadow="0">
      <root>
        <mxCell id="0" />
        <mxCell id="1" parent="0" />
        <mxCell id="cykjnuBiPpNOiXnraNKN-5" style="edgeStyle=orthogonalEdgeStyle;rounded=0;orthogonalLoop=1;jettySize=auto;html=1;exitX=0.5;exitY=1;exitDx=0;exitDy=0;entryX=0.5;entryY=0;entryDx=0;entryDy=0;" edge="1" parent="1" source="cykjnuBiPpNOiXnraNKN-1" target="cykjnuBiPpNOiXnraNKN-2">
          <mxGeometry relative="1" as="geometry" />
        </mxCell>
        <mxCell id="cykjnuBiPpNOiXnraNKN-1" value="&lt;b&gt;&lt;font style=&quot;font-size: 18px&quot;&gt;年排放总量&lt;/font&gt;&lt;/b&gt;" style="rounded=1;whiteSpace=wrap;html=1;fillColor=#FFCC99;" vertex="1" parent="1">
          <mxGeometry x="350" y="60" width="120" height="60" as="geometry" />
        </mxCell>
        <mxCell id="cykjnuBiPpNOiXnraNKN-6" style="edgeStyle=orthogonalEdgeStyle;rounded=0;orthogonalLoop=1;jettySize=auto;html=1;exitX=0.5;exitY=1;exitDx=0;exitDy=0;entryX=0.5;entryY=0;entryDx=0;entryDy=0;" edge="1" parent="1" source="cykjnuBiPpNOiXnraNKN-2" target="cykjnuBiPpNOiXnraNKN-3">
          <mxGeometry relative="1" as="geometry" />
        </mxCell>
        <mxCell id="cykjnuBiPpNOiXnraNKN-2" value="&lt;b&gt;&lt;font style=&quot;font-size: 18px&quot;&gt;空间区域分配&lt;/font&gt;&lt;/b&gt;" style="rounded=1;whiteSpace=wrap;html=1;fillColor=#FFCCCC;" vertex="1" parent="1">
          <mxGeometry x="350" y="150" width="120" height="60" as="geometry" />
        </mxCell>
        <mxCell id="cykjnuBiPpNOiXnraNKN-7" style="edgeStyle=orthogonalEdgeStyle;rounded=0;orthogonalLoop=1;jettySize=auto;html=1;exitX=0.5;exitY=1;exitDx=0;exitDy=0;" edge="1" parent="1" source="cykjnuBiPpNOiXnraNKN-3" target="cykjnuBiPpNOiXnraNKN-4">
          <mxGeometry relative="1" as="geometry" />
        </mxCell>
        <mxCell id="cykjnuBiPpNOiXnraNKN-3" value="&lt;b&gt;&lt;font style=&quot;font-size: 18px&quot;&gt;时间分配&lt;/font&gt;&lt;/b&gt;" style="rounded=1;whiteSpace=wrap;html=1;fillColor=#CCFFFF;" vertex="1" parent="1">
          <mxGeometry x="350" y="240" width="120" height="60" as="geometry" />
        </mxCell>
        <mxCell id="cykjnuBiPpNOiXnraNKN-4" value="&lt;font style=&quot;font-size: 18px&quot;&gt;&lt;b&gt;静态源清单&lt;/b&gt;&lt;/font&gt;" style="rounded=1;whiteSpace=wrap;html=1;fillColor=#FFD966;" vertex="1" parent="1">
          <mxGeometry x="350" y="330" width="120" height="60" as="geometry" />
        </mxCell>
      </root>
    </mxGraphModel>
  </diagram>
</mxfile>
